<svg xmlns="http://www.w3.org/2000/svg" viewBox="0 0 112.29 92.18"><defs><style>.cls-1{fill:#f15a24;}</style></defs><title>Recurso 2marker</title><g id="Capa_2" data-name="Capa 2"><g id="Capa_1-2" data-name="Capa 1"><path class="cls-1" d="M5.55,1.51H4.09V11.59H1.47V1.51H0V0H5.55Z"/><path class="cls-1" d="M11.61,11.59H9.52v-.36q-.27.49-1.52.49-1.94,0-1.94-1.47V8.36a1.5,1.5,0,0,1,.47-1.1A7.87,7.87,0,0,1,8.42,6.09q.82-.4.82-.65V4.06q0-.46-.41-.46T8.37,4.72q0,.2,0,.6t0,.6H6.14V4q0-1.9,2.83-1.9,2.64,0,2.64,2ZM9.24,9.84V7.42q-.82.19-.81.71V9.84a.38.38,0,0,0,.42.43Q9.24,10.26,9.24,9.84Z"/><path class="cls-1" d="M14.15,11.27l-.2.32H12.15V0h2.37V2.49A2.38,2.38,0,0,1,16,2.14a2.18,2.18,0,0,1,1.18.34,1.07,1.07,0,0,1,.54,1v6.74a1.27,1.27,0,0,1-.64,1.12,2.8,2.8,0,0,1-1.54.41A2.52,2.52,0,0,1,14.15,11.27Zm1.2-1.44V4q0-.43-.41-.43a.37.37,0,0,0-.42.41V9.84a.37.37,0,0,0,.42.43Q15.35,10.26,15.35,9.84Z"/><path class="cls-1" d="M20.62,11.59H18.25V0h2.37Z"/><path class="cls-1" d="M26.7,7.61H23.53V9.8q0,.48.41.48t.4-.48V7.91H26.7V9.82q0,1.9-2.79,1.9t-2.76-2V4.12q0-2,2.76-2T26.7,4ZM24.33,6.21V4.06q0-.46-.4-.46t-.41.46V6.21Z"/><path class="cls-1" d="M32.85,6.09H30.48v-2q0-.43-.41-.43a.36.36,0,0,0-.41.41v7.55H27.29V2.21h2.37v.32a2.32,2.32,0,0,1,1.46-.38,2,2,0,0,1,1.21.37,1.14,1.14,0,0,1,.51,1Z"/><path class="cls-1" d="M33.25,9.74V4.12q0-2,2.82-2A3.88,3.88,0,0,1,38,2.6,1.53,1.53,0,0,1,38.81,4V9.82q0,1.9-2.74,1.9T33.25,9.74Zm3.19.06V4.06q0-.46-.41-.46t-.42.46V9.8q0,.48.42.48T36.44,9.8Z"/><path class="cls-1" d="M39.28,7.81h2.37v2q0,.48.4.48t.4-.91q0-1.19-.49-1.54a11.94,11.94,0,0,1-2.24-1.32,1.52,1.52,0,0,1-.38-1.13V4.12q0-2,2.76-2T44.78,4V5.89H42.47l.05-1.12q0-1.17-.44-1.17t-.44.74a2.63,2.63,0,0,0,.2,1.15A6.28,6.28,0,0,0,44,6.81a1.77,1.77,0,0,1,.82,1.52V9.74q0,2-2.81,2t-2.75-1.9Z"/><path class="cls-1" d="M45.3,11.59V0h3.27a3.32,3.32,0,0,1,1.9.56,1.94,1.94,0,0,1,.83,1.73v7A2,2,0,0,1,50.53,11a3.08,3.08,0,0,1-1.94.6Zm3.37-2.1V2.09q0-.61-.75-.61V10.1Q48.67,10.1,48.67,9.49Z"/><path class="cls-1" d="M57.37,7.61H54.19V9.8q0,.48.41.48T55,9.8V7.91h2.37V9.82q0,1.9-2.79,1.9t-2.76-2V4.12q0-2,2.76-2T57.37,4ZM55,6.21V4.06q0-.46-.4-.46t-.41.46V6.21Z"/><path class="cls-1" d="M57.91,11.59V0H61a3.66,3.66,0,0,1,1.92.49,1.69,1.69,0,0,1,.82,1.56V3.66q0,1.22-1.53,1.72,1.61.39,1.61,1.67V9.3A2,2,0,0,1,63,11a3,3,0,0,1-1.83.57Zm3.35-7.52v-2q0-.61-.73-.61v3.2Q61.26,4.69,61.26,4.07Zm0,5.42V6.55q0-.61-.73-.61V10.1Q61.26,10.1,61.26,9.49Z"/><path class="cls-1" d="M69.94,11.59h-2.1v-.36q-.27.49-1.52.49-1.94,0-1.94-1.47V8.36a1.5,1.5,0,0,1,.47-1.1,7.86,7.86,0,0,1,1.89-1.17q.82-.4.82-.65V4.06q0-.46-.41-.46T66.7,4.72q0,.2,0,.6c0,.26,0,.46,0,.6H64.47V4q0-1.9,2.83-1.9,2.64,0,2.64,2ZM67.57,9.84V7.42q-.81.19-.81.71V9.84a.38.38,0,0,0,.42.43Q67.57,10.26,67.57,9.84Z"/><path class="cls-1" d="M70.48,7.81h2.37v2q0,.48.4.48t.4-.91q0-1.19-.49-1.54a11.93,11.93,0,0,1-2.24-1.32,1.52,1.52,0,0,1-.38-1.13V4.12q0-2,2.76-2T76,4V5.89H73.67l0-1.12q0-1.17-.44-1.17t-.44.74A2.64,2.64,0,0,0,73,5.48a6.3,6.3,0,0,0,2.17,1.33A1.77,1.77,0,0,1,76,8.33V9.74q0,2-2.81,2t-2.75-1.9Z"/><path class="cls-1" d="M83.14,11.59H80.35L78.91,8.2v3.39H76.54V0h2.37V5.2l1.21-3h2.45L80.85,6.31Z"/><path class="cls-1" d="M89.05,7.61H85.88V9.8q0,.48.41.48c.27,0,.4-.16.4-.48V7.91h2.37V9.82q0,1.9-2.79,1.9t-2.76-2V4.12q0-2,2.76-2T89.05,4ZM86.68,6.21V4.06c0-.31-.13-.46-.4-.46s-.41.15-.41.46V6.21Z"/><path class="cls-1" d="M94.27,11.59h-1.5q-1.61,0-1.92-.47a3.52,3.52,0,0,1-.32-1.8V3.6H89.48V2.21h1.06V.31h2.37V2.21h1.28V3.6H92.91V9.3a.58.58,0,0,0,.25.55,2.73,2.73,0,0,0,1.11.14Z"/><path class="cls-1" d="M96.7,11.27l-.2.32H94.71V0h2.37V2.49a2.38,2.38,0,0,1,1.48-.35,2.19,2.19,0,0,1,1.18.34,1.07,1.07,0,0,1,.54,1v6.74a1.27,1.27,0,0,1-.64,1.12,2.8,2.8,0,0,1-1.54.41A2.52,2.52,0,0,1,96.7,11.27Zm1.2-1.44V4q0-.43-.41-.43a.37.37,0,0,0-.42.41V9.84a.37.37,0,0,0,.42.43Q97.9,10.26,97.9,9.84Z"/><path class="cls-1" d="M106.37,11.59h-2.1v-.36q-.27.49-1.52.49-1.94,0-1.94-1.47V8.36a1.5,1.5,0,0,1,.47-1.1,7.86,7.86,0,0,1,1.89-1.17q.82-.4.82-.65V4.06q0-.46-.41-.46t-.47,1.12q0,.2,0,.6c0,.26,0,.46,0,.6H100.9V4q0-1.9,2.83-1.9,2.64,0,2.64,2ZM104,9.84V7.42q-.81.19-.81.71V9.84a.38.38,0,0,0,.42.43Q104,10.26,104,9.84Z"/><path class="cls-1" d="M109.31,11.59h-2.37V0h2.37Z"/><path class="cls-1" d="M112.24,11.59h-2.37V0h2.37Z"/><path class="cls-1" d="M73.56,61.64H36.43v4.07h3.15l3.09,25.09a1.58,1.58,0,0,0,1.56,1.38H65.76a1.58,1.58,0,0,0,1.56-1.38l3.08-25.09h3.15ZM67,67.88,65.1,66.58l.12-.09h1.91ZM42.85,66.5h1.91l.12.09L43,67.88ZM46.92,68l6,4.19-6.33,4.4-2.77-1.93-.51-4.18ZM55,74.13,60.5,78,55,81.79,49.48,78ZM44.6,78l-.3.21-.06-.46Zm2,1.41L53,83.82l-6.62,4.6-.87-.61-.86-7ZM55,85.83,59.6,89H50.39Zm8.65,2.59L57,83.82l6.33-4.4,2,1.4-.86,7ZM65.39,78l.36-.25-.06.46Zm-2-1.41L57,72.19l6-4.2,3.58,2.49-.52,4.18ZM55,70.1l-5.18-3.6H60.18Z"/><path class="cls-1" d="M18.41,26.29V76.21h20L38,73.06H21.56V29.45H88.42V73.06H71.85l-.33,3.15H91.58V26.29Z"/><path class="cls-1" d="M31.79,38.65V70.17h6.77l-.2-1.58h-5V40.23H76.61V68.59H71.7l-.22,1.58h6.7V38.65Z"/><path class="cls-1" d="M3,18.2l-.41-.43a1.78,1.78,0,0,1-1.27.5A1.23,1.23,0,0,1,0,17.05a1.43,1.43,0,0,1,.85-1.27v0a1.49,1.49,0,0,1-.36-.91,1.06,1.06,0,0,1,1.1-1.07.9.9,0,0,1,1,.92c0,.46-.26.82-1,1.16v0L2.66,17.1a3.19,3.19,0,0,0,.42-1.27H3.6A3.31,3.31,0,0,1,3,17.43l.72.77Zm-1.57-.35a1.21,1.21,0,0,0,.89-.39c-.26-.28-.74-.81-1.23-1.37A1.07,1.07,0,0,0,.54,17a.86.86,0,0,0,.89.88Zm.11-3.68A.57.57,0,0,0,1,14.8a1.22,1.22,0,0,0,.33.78c.44-.25.72-.48.72-.85a.51.51,0,0,0-.5-.56Z"/><path class="cls-1" d="M7.82,16.16H6.13v1.57H8v.47H5.57V13.85H7.92v.47H6.13V15.7H7.82Z"/><path class="cls-1" d="M10.83,17.72h0a1.11,1.11,0,0,1-1,.55,1.42,1.42,0,0,1-1.32-1.58A1.5,1.5,0,0,1,9.89,15a1,1,0,0,1,1,.54h0l0-.47h.54c0,.26,0,.54,0,.86v3.54h-.57Zm0-1.37a1,1,0,0,0,0-.24.83.83,0,0,0-.81-.65c-.59,0-.94.5-.94,1.2s.3,1.16.92,1.16a.85.85,0,0,0,.81-.62,1,1,0,0,0,0-.27Z"/><path class="cls-1" d="M15,17.35c0,.32,0,.61,0,.85h-.5l0-.51h0a1.18,1.18,0,0,1-1,.58c-.49,0-1.08-.27-1.08-1.37V15.08h.57v1.73c0,.59.18,1,.7,1a.82.82,0,0,0,.75-.52.83.83,0,0,0,.05-.29V15.08H15Z"/><path class="cls-1" d="M16.53,14.2a.35.35,0,0,1-.7,0,.35.35,0,0,1,.35-.35A.34.34,0,0,1,16.53,14.2Zm-.63,4V15.08h.57V18.2Z"/><path class="cls-1" d="M17.41,16.1c0-.4,0-.72,0-1h.51l0,.54h0A1.23,1.23,0,0,1,19,15a1.42,1.42,0,0,1,1.32,1.59,1.48,1.48,0,0,1-1.42,1.68,1.1,1.1,0,0,1-1-.49h0v1.7h-.56Zm.56.83a1.26,1.26,0,0,0,0,.23.88.88,0,0,0,.85.66c.6,0,.95-.49.95-1.21s-.33-1.16-.93-1.16a.91.91,0,0,0-.86.7.93.93,0,0,0,0,.23Z"/><path class="cls-1" d="M23.28,17.45a4.41,4.41,0,0,0,.05.75h-.52l0-.39h0a1.16,1.16,0,0,1-1,.46.89.89,0,0,1-1-.9c0-.76.67-1.17,1.88-1.16v-.06a.64.64,0,0,0-.71-.72,1.55,1.55,0,0,0-.81.23l-.13-.37a1.94,1.94,0,0,1,1-.28c1,0,1.19.65,1.19,1.28Zm-.55-.85c-.62,0-1.32.1-1.32.7a.5.5,0,0,0,.54.54.78.78,0,0,0,.76-.52.6.6,0,0,0,0-.18Z"/><path class="cls-1" d="M24.2,15.92c0-.32,0-.59,0-.85h.5l0,.5h0a1.08,1.08,0,0,1,1-.57.92.92,0,0,1,.88.63h0a1.29,1.29,0,0,1,.35-.41,1.06,1.06,0,0,1,.69-.22c.41,0,1,.27,1,1.36V18.2h-.56V16.43c0-.6-.22-1-.68-1a.74.74,0,0,0-.67.52.93.93,0,0,0,0,.28V18.2h-.56V16.33c0-.5-.22-.86-.65-.86a.85.85,0,0,0-.75.85V18.2H24.2Z"/><path class="cls-1" d="M30.22,14.2a.35.35,0,0,1-.7,0,.35.35,0,0,1,.35-.35A.34.34,0,0,1,30.22,14.2Zm-.63,4V15.08h.57V18.2Z"/><path class="cls-1" d="M31.42,16.74a1,1,0,0,0,1.07,1.08,2.05,2.05,0,0,0,.86-.16l.1.41a2.51,2.51,0,0,1-1,.2,1.46,1.46,0,0,1-1.54-1.58A1.52,1.52,0,0,1,32.34,15a1.32,1.32,0,0,1,1.29,1.47,2.16,2.16,0,0,1,0,.26Zm1.67-.41a.81.81,0,0,0-.79-.92.94.94,0,0,0-.87.92Z"/><path class="cls-1" d="M34.34,15.92c0-.32,0-.59,0-.85h.5l0,.52h0a1.15,1.15,0,0,1,1-.59c.43,0,1.1.26,1.1,1.33V18.2h-.57V16.4c0-.5-.19-.92-.72-.92a.81.81,0,0,0-.76.58.82.82,0,0,0,0,.26V18.2h-.57Z"/><path class="cls-1" d="M38.58,14.33v.75h.81v.43h-.81V17.2c0,.39.11.61.43.61a1.06,1.06,0,0,0,.33,0l0,.43a1.38,1.38,0,0,1-.5.08.79.79,0,0,1-.61-.25,1.16,1.16,0,0,1-.22-.81v-1.7h-.48v-.43H38V14.5Z"/><path class="cls-1" d="M42.82,16.61a1.53,1.53,0,0,1-1.56,1.66,1.49,1.49,0,0,1-1.5-1.61A1.53,1.53,0,0,1,41.32,15,1.48,1.48,0,0,1,42.82,16.61Zm-2.48,0c0,.68.39,1.2.95,1.2s.95-.51.95-1.21c0-.53-.26-1.2-.94-1.2S40.35,16.05,40.35,16.65Z"/><path class="cls-1" d="M44.93,13.91a8,8,0,0,1,1.19-.09,2.49,2.49,0,0,1,1.76.54,2,2,0,0,1,.61,1.56,2.3,2.3,0,0,1-.63,1.69,2.68,2.68,0,0,1-1.92.63,9.08,9.08,0,0,1-1-.05Zm.56,3.85a3.53,3.53,0,0,0,.57,0,1.67,1.67,0,0,0,1.85-1.85,1.55,1.55,0,0,0-1.76-1.68,3.16,3.16,0,0,0-.66.06Z"/><path class="cls-1" d="M49.56,16.74a1,1,0,0,0,1.07,1.08,2.05,2.05,0,0,0,.86-.16l.1.41a2.51,2.51,0,0,1-1,.2A1.46,1.46,0,0,1,49,16.69,1.52,1.52,0,0,1,50.48,15a1.32,1.32,0,0,1,1.29,1.47,2.16,2.16,0,0,1,0,.26Zm1.67-.41a.81.81,0,0,0-.79-.92.94.94,0,0,0-.87.92Z"/><path class="cls-1" d="M52.48,16.1c0-.4,0-.72,0-1H53l0,.54h0A1.23,1.23,0,0,1,54.11,15a1.42,1.42,0,0,1,1.32,1.59A1.48,1.48,0,0,1,54,18.27a1.1,1.1,0,0,1-1-.49h0v1.7h-.56Zm.56.83a1.26,1.26,0,0,0,0,.23.88.88,0,0,0,.85.66c.6,0,.95-.49.95-1.21s-.33-1.16-.93-1.16a.91.91,0,0,0-.86.7.93.93,0,0,0,0,.23Z"/><path class="cls-1" d="M59,16.61a1.53,1.53,0,0,1-1.56,1.66,1.49,1.49,0,0,1-1.5-1.61A1.53,1.53,0,0,1,57.48,15,1.48,1.48,0,0,1,59,16.61Zm-2.48,0c0,.68.39,1.2.95,1.2s.95-.51.95-1.21c0-.53-.27-1.2-.94-1.2S56.5,16.05,56.5,16.65Z"/><path class="cls-1" d="M59.7,16.05c0-.37,0-.68,0-1h.5l0,.61h0a.94.94,0,0,1,.87-.68l.16,0v.54l-.19,0a.8.8,0,0,0-.76.73,1.62,1.62,0,0,0,0,.26V18.2H59.7Z"/><path class="cls-1" d="M62.65,14.33v.75h.81v.43h-.81V17.2c0,.39.11.61.43.61a1.06,1.06,0,0,0,.33,0l0,.43a1.38,1.38,0,0,1-.5.08.79.79,0,0,1-.61-.25,1.16,1.16,0,0,1-.22-.81v-1.7h-.48v-.43h.48V14.5Z"/><path class="cls-1" d="M64.74,14.2a.35.35,0,0,1-.7,0,.35.35,0,0,1,.35-.35A.34.34,0,0,1,64.74,14.2Zm-.63,4V15.08h.57V18.2Z"/><path class="cls-1" d="M65.84,15.08l.61,1.76a7.92,7.92,0,0,1,.25.8h0c.07-.26.16-.52.26-.8l.61-1.76h.59L67,18.2h-.54l-1.19-3.12Z"/><path class="cls-1" d="M71.49,16.61a1.53,1.53,0,0,1-1.55,1.66,1.49,1.49,0,0,1-1.5-1.61A1.53,1.53,0,0,1,70,15,1.48,1.48,0,0,1,71.49,16.61Zm-2.48,0c0,.68.39,1.2.95,1.2s.95-.51.95-1.21c0-.53-.26-1.2-.94-1.2S69,16.05,69,16.65Z"/><path class="cls-1" d="M76.28,13.62V17.4c0,.28,0,.59,0,.81h-.51l0-.54h0a1.16,1.16,0,0,1-1.07.61,1.42,1.42,0,0,1-1.34-1.59A1.49,1.49,0,0,1,74.75,15a1,1,0,0,1,.94.48h0V13.62Zm-.57,2.73a1,1,0,0,0,0-.24.84.84,0,0,0-.82-.66c-.59,0-.94.52-.94,1.21s.31,1.16.92,1.16a.85.85,0,0,0,.83-.68,1,1,0,0,0,0-.25Z"/><path class="cls-1" d="M77.54,16.74a1,1,0,0,0,1.07,1.08,2.05,2.05,0,0,0,.87-.16l.1.41a2.51,2.51,0,0,1-1,.2A1.46,1.46,0,0,1,77,16.69,1.52,1.52,0,0,1,78.46,15a1.32,1.32,0,0,1,1.29,1.47,2.31,2.31,0,0,1,0,.26Zm1.67-.41a.81.81,0,0,0-.79-.92.94.94,0,0,0-.87.92Z"/><path class="cls-1" d="M82.74,13.85h.56v2.91c0,1.16-.57,1.51-1.32,1.51a1.83,1.83,0,0,1-.6-.1l.08-.46a1.34,1.34,0,0,0,.47.08c.5,0,.8-.23.8-1.08Z"/><path class="cls-1" d="M87,16.61a1.53,1.53,0,0,1-1.55,1.66A1.49,1.49,0,0,1,84,16.67,1.53,1.53,0,0,1,85.54,15,1.48,1.48,0,0,1,87,16.61Zm-2.48,0c0,.68.39,1.2.95,1.2s.95-.51.95-1.21c0-.53-.26-1.2-.94-1.2S84.57,16.05,84.57,16.65Z"/><path class="cls-1" d="M87.69,17.62a1.49,1.49,0,0,0,.75.23c.41,0,.61-.21.61-.46s-.16-.42-.58-.57-.83-.51-.83-.88A1,1,0,0,1,88.71,15a1.57,1.57,0,0,1,.77.19l-.14.41a1.22,1.22,0,0,0-.64-.18c-.34,0-.52.19-.52.43s.19.37.59.53.82.48.82.94-.43.94-1.17.94a1.78,1.78,0,0,1-.88-.22Z"/><path class="cls-1" d="M92.94,17.35c0,.32,0,.61,0,.85h-.5l0-.51h0a1.18,1.18,0,0,1-1,.58c-.49,0-1.08-.27-1.08-1.37V15.08h.57v1.73c0,.59.18,1,.7,1a.82.82,0,0,0,.75-.52.83.83,0,0,0,.05-.29V15.08h.57Z"/><path class="cls-1" d="M94.2,16.74a1,1,0,0,0,1.07,1.08,2.05,2.05,0,0,0,.87-.16l.1.41a2.51,2.51,0,0,1-1,.2,1.46,1.46,0,0,1-1.54-1.58A1.52,1.52,0,0,1,95.12,15a1.32,1.32,0,0,1,1.29,1.47,2.31,2.31,0,0,1,0,.26Zm1.67-.41a.81.81,0,0,0-.79-.92.94.94,0,0,0-.87.92ZM96,13.73l-.79.92h-.41l.57-.92Z"/><path class="cls-1" d="M102.18,16.29c0-.61-.07-1.34-.06-1.88h0c-.15.51-.33,1.06-.55,1.65l-.77,2.11h-.43l-.7-2.07c-.21-.61-.38-1.17-.5-1.69h0c0,.54,0,1.27-.08,1.92l-.12,1.87h-.54l.3-4.35h.72l.74,2.1c.18.54.33,1,.44,1.47h0c.11-.44.26-.92.46-1.47l.77-2.1h.72l.27,4.35h-.55Z"/><path class="cls-1" d="M104,16.74a1,1,0,0,0,1.07,1.08,2.05,2.05,0,0,0,.86-.16l.1.41a2.51,2.51,0,0,1-1,.2,1.46,1.46,0,0,1-1.54-1.58A1.52,1.52,0,0,1,105,15a1.32,1.32,0,0,1,1.29,1.47,2.31,2.31,0,0,1,0,.26Zm1.67-.41a.81.81,0,0,0-.79-.92.94.94,0,0,0-.87.92Z"/><path class="cls-1" d="M106.2,19.12a.92.92,0,0,0,.62-.24c.16-.17.21-.43.21-1.17V15.08h.57v2.85a1.71,1.71,0,0,1-.37,1.28,1.44,1.44,0,0,1-1,.35Zm1.46-4.92a.33.33,0,0,1-.36.35.34.34,0,0,1-.35-.35.35.35,0,0,1,.36-.35A.34.34,0,0,1,107.66,14.2Z"/><path class="cls-1" d="M109.16,14.2a.35.35,0,0,1-.7,0,.35.35,0,0,1,.35-.35A.34.34,0,0,1,109.16,14.2Zm-.63,4V15.08h.57V18.2Z"/><path class="cls-1" d="M112.24,17.45a4.36,4.36,0,0,0,.05.75h-.52l0-.39h0a1.16,1.16,0,0,1-1,.46.89.89,0,0,1-1-.9c0-.76.67-1.17,1.88-1.16v-.06a.64.64,0,0,0-.71-.72,1.56,1.56,0,0,0-.81.23l-.13-.37a1.93,1.93,0,0,1,1-.28c1,0,1.19.65,1.19,1.28Zm-.55-.85c-.62,0-1.32.1-1.32.7a.5.5,0,0,0,.54.54.78.78,0,0,0,.75-.52.59.59,0,0,0,0-.18Z"/></g></g></svg>