<svg xmlns="http://www.w3.org/2000/svg" viewBox="0 0 72.53 65.31"><defs><style>.cls-1{fill:#fff;}</style></defs><title>Recurso 1marker</title><g id="Capa_2" data-name="Capa 2"><g id="Capa_1-2" data-name="Capa 1"><path class="cls-1" d="M54.66,35H17.86v4H21L24,63.94a1.56,1.56,0,0,0,1.55,1.37H46.94a1.56,1.56,0,0,0,1.55-1.37l3.05-24.87h3.12Zm-6.54,6.18-1.85-1.28.12-.09H48.3Zm-23.9-1.37h1.89l.12.09-1.85,1.28Zm4,1.49,6,4.16L28,49.86l-2.75-1.91-.51-4.14Zm8,6.08,5.46,3.8L36.26,55,30.8,51.22ZM26,51.26l-.3.21L25.6,51Zm2,1.4L34.25,57l-6.56,4.56-.86-.6L26,54ZM36.26,59l4.57,3.17H31.7Zm8.58,2.57L38.28,57l6.28-4.36,2,1.39L45.7,61Zm1.73-10.32.36-.25-.05.46Zm-2-1.4L38.28,45.5l6-4.16,3.55,2.46-.51,4.15Zm-8.29-6.44-5.14-3.57H41.4Z"/><path class="cls-1" d="M0,0V49.48H19.79l-.39-3.12H3.13V3.13H69.4V46.36H53l-.33,3.13H72.53V0Z"/><path class="cls-1" d="M13.27,12.25V43.49H20l-.2-1.56H14.83V13.81H57.7V41.93H52.83l-.21,1.56h6.64V12.25Z"/></g></g></svg>